<svg width="126" height="45" viewBox="0 0 126 45" fill="none" xmlns="http://www.w3.org/2000/svg">
<g filter="url(#filter0_d)">
<path d="M79.9999 30L89.4999 33L97.4999 25L107.5 32L118 30L113.5 15.5L97.4999 20.5L88.4999 15.5L78.9999 17L79.9999 30Z" fill="#F1A501"/>
</g>
<g filter="url(#filter1_d)">
<path d="M5.91992 25.064V22.902L12.0379 21.798V24.788C12.0686 26.4134 12.4826 27.64 13.2799 28.468C14.1079 29.2654 15.1966 29.664 16.5459 29.664C17.8646 29.664 18.9073 29.2347 19.6739 28.376C20.4713 27.5174 20.8699 26.3674 20.8699 24.926V2.38604H27.2179V24.926C27.2179 27.9314 26.2213 30.4767 24.2279 32.562C22.2346 34.6474 19.6893 35.69 16.5919 35.69C13.3719 35.69 10.7806 34.724 8.81792 32.792C6.88592 30.8294 5.91992 28.2534 5.91992 25.064Z" fill="black"/>
<path d="M28.6766 28.836C28.6766 26.904 29.3053 25.3554 30.5626 24.19C31.82 23.0247 33.4453 22.2887 35.4386 21.982L41.0046 21.154C42.1393 21.0007 42.7066 20.464 42.7066 19.544C42.7066 18.6854 42.3693 17.98 41.6946 17.428C41.0506 16.876 40.1153 16.6 38.8886 16.6C37.6006 16.6 36.5733 16.9527 35.8066 17.658C35.0706 18.3634 34.6566 19.2374 34.5646 20.28L29.1366 19.13C29.3513 17.1674 30.3173 15.4347 32.0346 13.932C33.752 12.4294 36.0213 11.678 38.8426 11.678C42.216 11.678 44.7 12.4907 46.2946 14.116C47.8893 15.7107 48.6866 17.7654 48.6866 20.28V31.412C48.6866 32.7614 48.7786 33.9574 48.9626 35H43.3506C43.1973 34.3254 43.1206 33.4207 43.1206 32.286C41.6793 34.5247 39.456 35.644 36.4506 35.644C34.12 35.644 32.234 34.9694 30.7926 33.62C29.382 32.2707 28.6766 30.676 28.6766 28.836ZM37.7386 31.09C39.18 31.09 40.3606 30.6914 41.2806 29.894C42.2313 29.066 42.7066 27.7167 42.7066 25.846V24.834L37.6006 25.616C35.73 25.892 34.7946 26.8427 34.7946 28.468C34.7946 29.204 35.0553 29.8327 35.5766 30.354C36.098 30.8447 36.8186 31.09 37.7386 31.09Z" fill="black"/>
<path d="M72.6577 1.69604V30.906C72.6577 32.4087 72.719 33.7734 72.8417 35H66.9997C66.8463 34.2334 66.7697 33.3594 66.7697 32.378C66.2483 33.3287 65.4203 34.0954 64.2857 34.678C63.1817 35.2607 61.8937 35.552 60.4217 35.552C57.2017 35.552 54.549 34.4327 52.4637 32.194C50.409 29.9247 49.3817 27.0727 49.3817 23.638C49.3817 20.2954 50.3937 17.4894 52.4177 15.22C54.4723 12.9507 57.079 11.816 60.2377 11.816C63.4883 11.816 65.6197 12.7514 66.6317 14.622V1.69604H72.6577ZM55.5457 23.638C55.5457 25.6314 56.067 27.2107 57.1097 28.376C58.1523 29.5107 59.5017 30.078 61.1577 30.078C62.783 30.078 64.117 29.4954 65.1597 28.33C66.2023 27.1647 66.7237 25.5854 66.7237 23.592C66.7237 21.6294 66.2023 20.096 65.1597 18.992C64.117 17.8574 62.783 17.29 61.1577 17.29C59.5323 17.29 58.183 17.8574 57.1097 18.992C56.067 20.1267 55.5457 21.6754 55.5457 23.638Z" fill="black"/>
<path d="M81.6866 28.422C82.8213 29.5567 84.1859 30.124 85.7806 30.124C87.3753 30.124 88.7246 29.5567 89.8286 28.422C90.9633 27.2874 91.5306 25.708 91.5306 23.684C91.5306 21.66 90.9633 20.0807 89.8286 18.946C88.7246 17.8114 87.3753 17.244 85.7806 17.244C84.1859 17.244 82.8213 17.8114 81.6866 18.946C80.5826 20.0807 80.0306 21.66 80.0306 23.684C80.0306 25.708 80.5826 27.2874 81.6866 28.422ZM77.2706 15.082C79.5399 12.8127 82.3766 11.678 85.7806 11.678C89.1846 11.678 92.0059 12.8127 94.2446 15.082C96.5139 17.3514 97.6486 20.2187 97.6486 23.684C97.6486 27.1494 96.5139 30.0167 94.2446 32.286C92.0059 34.5554 89.1846 35.69 85.7806 35.69C82.3766 35.69 79.5399 34.5554 77.2706 32.286C75.0319 30.0167 73.9126 27.1494 73.9126 23.684C73.9126 20.2187 75.0319 17.3514 77.2706 15.082Z" fill="black"/>
<path d="M104.87 28.422C106.005 29.5567 107.369 30.124 108.964 30.124C110.559 30.124 111.908 29.5567 113.012 28.422C114.147 27.2874 114.714 25.708 114.714 23.684C114.714 21.66 114.147 20.0807 113.012 18.946C111.908 17.8114 110.559 17.244 108.964 17.244C107.369 17.244 106.005 17.8114 104.87 18.946C103.766 20.0807 103.214 21.66 103.214 23.684C103.214 25.708 103.766 27.2874 104.87 28.422ZM100.454 15.082C102.723 12.8127 105.56 11.678 108.964 11.678C112.368 11.678 115.189 12.8127 117.428 15.082C119.697 17.3514 120.832 20.2187 120.832 23.684C120.832 27.1494 119.697 30.0167 117.428 32.286C115.189 34.5554 112.368 35.69 108.964 35.69C105.56 35.69 102.723 34.5554 100.454 32.286C98.2152 30.0167 97.0959 27.1494 97.0959 23.684C97.0959 20.2187 98.2152 17.3514 100.454 15.082Z" fill="black"/>
<path d="M5.83113 22.41L5.41992 22.4842V22.902V25.064C5.41992 28.3622 6.42293 31.0718 8.4616 33.1428L8.46155 33.1428L8.46716 33.1484C10.5391 35.188 13.2646 36.19 16.5919 36.19C19.8146 36.19 22.4942 35.0994 24.5894 32.9075C26.6757 30.7249 27.7179 28.0541 27.7179 24.926V2.38604V1.88604H27.2179H20.8699H20.3699V2.38604V24.926C20.3699 26.2717 20.0003 27.2898 19.3075 28.0358L19.3075 28.0358L19.301 28.043C18.6434 28.7795 17.7451 29.164 16.5459 29.164C15.3058 29.164 14.3516 28.8024 13.6336 28.1145C12.9589 27.4095 12.5678 26.3273 12.5379 24.7833V21.798V21.1997L11.9491 21.306L5.83113 22.41ZM35.3651 21.4875L35.3626 21.4879C33.2884 21.807 31.5655 22.5788 30.2227 23.8233C28.8498 25.0958 28.1766 26.7844 28.1766 28.836C28.1766 30.8215 28.9444 32.5441 30.447 33.9814L30.4509 33.9851C32.0013 35.4365 34.0174 36.144 36.4506 36.144C39.0576 36.144 41.1471 35.332 42.6667 33.69C42.706 34.2305 42.7708 34.705 42.8631 35.1109L42.9515 35.5H43.3506H48.9626H49.5586L49.455 34.9132C49.2772 33.9057 49.1866 32.7397 49.1866 31.412V26.7577C49.642 28.9617 50.6084 30.8899 52.093 32.5296L52.093 32.5297L52.0978 32.5348C54.2832 34.8809 57.0711 36.052 60.4217 36.052C61.9594 36.052 63.3294 35.7475 64.5167 35.1215C65.2259 34.757 65.8321 34.3195 66.3285 33.807C66.3683 34.2628 66.4284 34.6933 66.5094 35.0981L66.5898 35.5H66.9997H72.8417H73.3941L73.3392 34.9503C73.2185 33.7433 73.1577 32.3955 73.1577 30.906V1.69604V1.19604H72.6577H66.6317H66.1317V1.69604V13.1459C64.8314 11.8967 62.8257 11.316 60.2377 11.316C56.9429 11.316 54.1998 12.5067 52.047 14.8844L52.0445 14.8872C50.5881 16.5202 49.6373 18.418 49.1866 20.5694V20.28C49.1866 17.6503 48.3483 15.4635 46.6498 13.7641C44.9239 12.0063 42.2847 11.178 38.8426 11.178C35.9299 11.178 33.534 11.9557 31.7054 13.5558C29.9095 15.1272 28.87 16.9692 28.6396 19.0757L28.5904 19.5254L29.033 19.6192L34.461 20.7692L35.0131 20.8862L35.0627 20.324C35.1442 19.4002 35.5052 18.6411 36.1489 18.0226C36.8024 17.4232 37.6973 17.1 38.8886 17.1C40.0481 17.1 40.8489 17.3617 41.3692 17.8077L41.3691 17.8078L41.378 17.815C41.9387 18.2737 42.2066 18.838 42.2066 19.544C42.2066 19.8932 42.1036 20.1162 41.9375 20.2733C41.758 20.4432 41.4474 20.5897 40.9377 20.6585L40.9311 20.6595L35.3651 21.4875ZM37.6736 26.1107L37.6763 26.1103L42.2066 25.4165V25.846C42.2066 27.6431 41.7498 28.8223 40.9522 29.517C40.1394 30.221 39.0824 30.59 37.7386 30.59C36.9121 30.59 36.329 30.3725 35.9248 29.9951C35.5007 29.5685 35.2946 29.0686 35.2946 28.468C35.2946 27.7561 35.4963 27.2488 35.8525 26.8867C36.2178 26.5154 36.8022 26.2393 37.6736 26.1107ZM64.7915 19.3304L64.7915 19.3304L64.7962 19.3354C65.7278 20.3218 66.2237 21.7184 66.2237 23.592C66.2237 25.4972 65.7271 26.946 64.787 27.9966C63.8434 29.0513 62.6471 29.578 61.1577 29.578C59.6311 29.578 58.4201 29.0618 57.48 28.0401C56.5415 26.9897 56.0457 25.5417 56.0457 23.638C56.0457 21.7668 56.5404 20.352 57.4754 19.333C58.4496 18.3044 59.6647 17.79 61.1577 17.79C62.6517 17.79 63.8492 18.3049 64.7915 19.3304ZM89.4702 19.2948L89.475 19.2996C90.493 20.3175 91.0306 21.7562 91.0306 23.684C91.0306 25.6119 90.493 27.0506 89.475 28.0685L89.4702 28.0734C88.4611 29.1105 87.2414 29.624 85.7806 29.624C84.3205 29.624 83.0835 29.1108 82.0424 28.0708C81.0543 27.0536 80.5306 25.614 80.5306 23.684C80.5306 21.7541 81.0543 20.3145 82.0424 19.2973C83.0835 18.2573 84.3205 17.744 85.7806 17.744C87.2414 17.744 88.4611 18.2576 89.4702 19.2948ZM76.917 14.7285L76.9146 14.7309C74.5752 17.1024 73.4126 20.0999 73.4126 23.684C73.4126 27.2682 74.5752 30.2657 76.9146 32.6372L76.917 32.6396C79.2863 35.0088 82.2529 36.19 85.7806 36.19C89.3076 36.19 92.2599 35.0092 94.5991 32.6386C95.8563 31.3812 96.7784 29.9474 97.3672 28.343C97.948 29.9465 98.8575 31.3798 100.098 32.6372L100.1 32.6396C102.47 35.0088 105.436 36.19 108.964 36.19C112.491 36.19 115.443 35.0092 117.782 32.6386C120.153 30.2677 121.332 27.2698 121.332 23.684C121.332 20.0983 120.153 17.1004 117.782 14.7296C115.443 12.3589 112.491 11.178 108.964 11.178C105.436 11.178 102.47 12.3593 100.1 14.7285L100.098 14.7309C98.8576 15.9883 97.948 17.4216 97.3672 19.025C96.7784 17.4208 95.8563 15.987 94.5992 14.7296C92.26 12.3589 89.3076 11.178 85.7806 11.178C82.2529 11.178 79.2863 12.3593 76.917 14.7285ZM112.653 19.2948L112.658 19.2996C113.676 20.3175 114.214 21.7562 114.214 23.684C114.214 25.6119 113.676 27.0506 112.658 28.0685L112.654 28.0734C111.644 29.1105 110.425 29.624 108.964 29.624C107.504 29.624 106.267 29.1108 105.226 28.0708C104.238 27.0536 103.714 25.614 103.714 23.684C103.714 21.7541 104.238 20.3145 105.226 19.2973C106.267 18.2573 107.504 17.744 108.964 17.744C110.425 17.744 111.644 18.2576 112.653 19.2948Z" stroke="black"/>
</g>
<defs>
<filter id="filter0_d" x="74.9999" y="15.5" width="47" height="25.5" filterUnits="userSpaceOnUse" color-interpolation-filters="sRGB">
<feFlood flood-opacity="0" result="BackgroundImageFix"/>
<feColorMatrix in="SourceAlpha" type="matrix" values="0 0 0 0 0 0 0 0 0 0 0 0 0 0 0 0 0 0 127 0" result="hardAlpha"/>
<feOffset dy="4"/>
<feGaussianBlur stdDeviation="2"/>
<feComposite in2="hardAlpha" operator="out"/>
<feColorMatrix type="matrix" values="0 0 0 0 0 0 0 0 0 0 0 0 0 0 0 0 0 0 0.25 0"/>
<feBlend mode="normal" in2="BackgroundImageFix" result="effect1_dropShadow"/>
<feBlend mode="normal" in="SourceGraphic" in2="effect1_dropShadow" result="shape"/>
</filter>
<filter id="filter1_d" x="0.919922" y="0.696045" width="124.912" height="43.994" filterUnits="userSpaceOnUse" color-interpolation-filters="sRGB">
<feFlood flood-opacity="0" result="BackgroundImageFix"/>
<feColorMatrix in="SourceAlpha" type="matrix" values="0 0 0 0 0 0 0 0 0 0 0 0 0 0 0 0 0 0 127 0" result="hardAlpha"/>
<feOffset dy="4"/>
<feGaussianBlur stdDeviation="2"/>
<feComposite in2="hardAlpha" operator="out"/>
<feColorMatrix type="matrix" values="0 0 0 0 0 0 0 0 0 0 0 0 0 0 0 0 0 0 0.25 0"/>
<feBlend mode="normal" in2="BackgroundImageFix" result="effect1_dropShadow"/>
<feBlend mode="normal" in="SourceGraphic" in2="effect1_dropShadow" result="shape"/>
</filter>
</defs>
</svg>
